<?xml version="1.0" encoding="UTF-8"?>
<svg width="100px" height="100px" viewBox="0 0 100 100" version="1.1" xmlns="http://www.w3.org/2000/svg" xmlns:xlink="http://www.w3.org/1999/xlink">
    <title>aws-image-handler-urls-icon copy</title>
    <g id="aws-image-handler-urls-icon-copy" stroke="none" stroke-width="1" fill="none" fill-rule="evenodd">
        <path d="M49.5,3 C75.7335256,3 97,24.2664744 97,50.5 C97,76.7335256 75.7335256,98 49.5,98 C23.2664744,98 2,76.7335256 2,50.5 C2,24.2664744 23.2664744,3 49.5,3 Z M50,7.55 C26.0032276,7.55 6.55,27.0032276 6.55,51 C6.55,74.9967724 26.0032276,94.45 50,94.45 C73.9967724,94.45 93.45,74.9967724 93.45,51 C93.45,27.0032276 73.9967724,7.55 50,7.55 Z M50,8.45 C73.4997161,8.45 92.55,27.5002839 92.55,51 C92.55,74.4997161 73.4997161,93.55 50,93.55 C26.5002839,93.55 7.45,74.4997161 7.45,51 C7.45,27.5002839 26.5002839,8.45 50,8.45 Z M53.1298511,28 C46.8508066,28 41.4577601,31.7102259 38.9244303,37.0723985 C37.8215239,36.5173956 36.5820873,36.1923856 35.2746329,36.1923856 C31.2571293,36.1923856 27.9069495,39.1577854 27.2668188,43.0306568 C22.445532,44.6826034 19,49.2729826 19,54.6773616 C19,61.475182 24.4612056,66.9864462 31.1888996,67 L68.8733372,67 C75.0287771,66.972752 80.0000282,61.9221058 80.0000282,55.7065363 C80.0137164,49.4764298 75.0153572,44.4250111 68.8598466,44.4118085 L68.8867571,43.9241532 C68.8867571,35.1224793 61.8322526,28 53.1298511,28 Z M61.8461538,44 L34.6153846,44 C32.9585304,44 31.6153846,45.3431458 31.6153846,47 L31.6153846,60.9542521 L31.6153846,60.9542521 L40.4940433,50.7073908 C41.2232659,49.8656042 42.5392115,49.8739768 43.2576533,50.7259889 L52.7621498,62 L57.5825381,57.2138399 C58.2664953,56.5340145 59.3673782,56.5082105 60.0832631,57.1544084 L64.8461538,61.4546162 L64.8461538,47 C64.8461538,45.3431458 63.5030081,44 61.8461538,44 Z M59.1537838,46.3076923 C60.8109742,46.3076923 62.1538462,47.6506127 62.1538462,49.3077235 C62.1538462,50.9648343 60.8110365,52.3076923 59.1537838,52.3076923 C57.4967182,52.3077547 56.1538462,50.9648343 56.1538462,49.3077235 C56.1538462,47.6506127 57.4966558,46.3076923 59.1537838,46.3076923 Z" id="Shape" fill="#3DA6D7"></path>
    </g>
</svg>