<?xml version="1.0" encoding="UTF-8"?>
<svg width="100px" height="100px" viewBox="0 0 100 100" version="1.1" xmlns="http://www.w3.org/2000/svg" xmlns:xlink="http://www.w3.org/1999/xlink">
    <title>aws-image-handler-urls-icon</title>
    <g id="aws-image-handler-urls-icon" stroke="none" stroke-width="1" fill="none" fill-rule="evenodd">
        <circle id="Oval" fill="#3DA6D7" cx="49.5" cy="50.5" r="47.5"></circle>
        <path d="M53.2844331,26 C63.5561249,26 71.882757,34.400873 71.882757,44.7823345 C71.882757,44.9738414 71.8509938,45.1656796 71.8509938,45.3575177 C79.1165178,45.3730901 85.0162232,51.3311736 85,58.6795044 C85,66.0106889 79.1323577,71.9678613 71.8669171,72 L27.3869045,72 C19.4460162,71.9840135 13,65.483548 13,57.465606 C13,51.0912103 17.0668593,45.6769168 22.7575611,43.7284669 C23.5131256,39.1604648 27.467438,35.6628138 32.2094116,35.6628138 C33.7526373,35.6628138 35.2155794,36.0461589 36.5173712,36.7007777 C39.5075324,30.3761639 45.8730984,26 53.2844331,26 Z M59.2399379,44 L39.4400209,44 C38.6447812,44 38,44.6447427 38,45.4399857 L38,60.2000555 C38,60.9952573 38.6447812,61.64 39.4400209,61.64 L59.2399379,61.64 C60.0352188,61.64 60.68,60.9952573 60.68,60.2000143 L60.68,45.4399857 C60.68,44.6447427 60.03526,44 59.2399379,44 Z M59.3458824,45.764 L59.3458824,56.4549524 L56.4776415,53.8210751 C56.0465314,53.425279 55.3835733,53.4410839 54.9716902,53.8574769 L52.068824,56.789 L46.3451604,49.8836682 C45.9125104,49.3618108 45.1200403,49.3566826 44.6808981,49.8722769 L39.3341176,56.1484794 L39.3341176,45.764 L59.3458824,45.764 Z M55.1211349,47.087 C54.015733,47.087 53.12,47.9753419 53.12,49.0715206 C53.12,50.1676994 54.0157746,51.0560413 55.1211349,51.056 C56.2266199,51.056 57.1223529,50.1676994 57.1223529,49.0715206 C57.1223529,47.9753419 56.2265783,47.087 55.1211349,47.087 Z" id="Combined-Shape" fill="#FFFFFF" fill-rule="nonzero"></path>
    </g>
</svg>